<svg width="93" height="16" viewBox="0 0 93 16" fill="none" xmlns="http://www.w3.org/2000/svg">
<path d="M0.6 15L0.2 13.8L0.6 11.8V0.84H4.2V9.06L4 11.8H4.4L7.98 11.6L9.4 11.4L11.16 13.72L10.18 15H0.6ZM12.7633 15V4.04L12.5633 2.04L12.7633 0.84H16.3833V15H12.7633ZM19.1742 15V4.04L18.7742 2.04L19.1742 0.84H25.9742C27.4809 0.84 28.6876 1.12 29.5942 1.68C30.5009 2.24 30.9542 3.14667 30.9542 4.4C30.9542 5.02667 30.8476 5.59333 30.6342 6.1C30.4209 6.60667 30.1142 7 29.7142 7.28C30.6209 7.57333 31.2876 8.02 31.7142 8.62C32.1409 9.22 32.3542 9.93333 32.3542 10.76C32.3542 12.2133 31.9276 13.2867 31.0742 13.98C30.2342 14.66 29.0009 15 27.3742 15H19.1742ZM22.7742 6.34H25.9342C26.3876 6.34 26.7142 6.23333 26.9142 6.02C27.1142 5.80667 27.2142 5.52667 27.2142 5.18C27.2142 4.74 27.0676 4.44 26.7742 4.28C26.4809 4.12 26.1342 4.04 25.7342 4.04H22.7742V6.34ZM22.7742 11.8H26.7742C27.2542 11.8 27.6076 11.74 27.8342 11.62C28.0742 11.5 28.2276 11.3467 28.2942 11.16C28.3742 10.9733 28.4142 10.78 28.4142 10.58C28.4142 10.2333 28.2876 9.94 28.0342 9.7C27.7942 9.44667 27.4409 9.32 26.9742 9.32H22.7742V11.8ZM34.5453 15V4.06L34.1453 2.04L34.5453 0.84H40.9453C41.9186 0.84 42.792 0.993333 43.5653 1.3C44.352 1.59333 44.972 2.1 45.4253 2.82C45.892 3.52667 46.1253 4.50667 46.1253 5.76C46.1253 6.89333 45.9186 7.81333 45.5053 8.52C45.092 9.21333 44.5186 9.73333 43.7853 10.08L43.9853 10.3L45.9653 12.78L47.1053 13.8V15H42.6053L39.8053 10.74H38.1453V11.78L38.3453 13.78L38.1453 15H34.5453ZM38.1453 7.6H40.1053C40.7986 7.6 41.352 7.47333 41.7653 7.22C42.1786 6.95333 42.3853 6.46667 42.3853 5.76C42.3853 5.26667 42.2853 4.9 42.0853 4.66C41.8853 4.40667 41.6053 4.24 41.2453 4.16C40.8986 4.08 40.492 4.04 40.0253 4.04H37.9453L38.1453 7.6ZM54.6855 15.2C53.8321 15.2 52.9988 15.1 52.1855 14.9C51.3855 14.6867 50.6588 14.3133 50.0055 13.78C49.3655 13.2467 48.8521 12.5067 48.4655 11.56C48.0921 10.6133 47.9055 9.4 47.9055 7.92C47.9055 6.44 48.0921 5.22667 48.4655 4.28C48.8521 3.33333 49.3655 2.59333 50.0055 2.06C50.6588 1.52667 51.3855 1.16 52.1855 0.96C52.9988 0.746666 53.8321 0.639999 54.6855 0.639999C55.5388 0.639999 56.3655 0.746666 57.1655 0.96C57.9788 1.17333 58.7055 1.54667 59.3455 2.08C59.9988 2.61333 60.5121 3.35333 60.8855 4.3C61.2721 5.24667 61.4655 6.45333 61.4655 7.92C61.4655 9.38667 61.2721 10.5933 60.8855 11.54C60.5121 12.4867 59.9988 13.2267 59.3455 13.76C58.7055 14.2933 57.9788 14.6667 57.1655 14.88C56.3655 15.0933 55.5388 15.2 54.6855 15.2ZM54.6855 11.8C55.6721 11.8 56.4188 11.5067 56.9255 10.92C57.4321 10.3333 57.6855 9.33333 57.6855 7.92C57.6855 6.50667 57.4321 5.50667 56.9255 4.92C56.4188 4.33333 55.6721 4.04 54.6855 4.04C53.7121 4.04 52.9721 4.34 52.4655 4.94C51.9588 5.54 51.7055 6.53333 51.7055 7.92C51.7055 9.30667 51.9588 10.3 52.4655 10.9C52.9721 11.5 53.7121 11.8 54.6855 11.8ZM69.8417 15.2C68.9884 15.2 68.1551 15.1 67.3417 14.9C66.5417 14.6867 65.8151 14.3133 65.1617 13.78C64.5217 13.2467 64.0084 12.5067 63.6217 11.56C63.2484 10.6133 63.0617 9.4 63.0617 7.92C63.0617 6.44 63.2484 5.22667 63.6217 4.28C64.0084 3.33333 64.5217 2.59333 65.1617 2.06C65.8151 1.52667 66.5417 1.16 67.3417 0.96C68.1551 0.746666 68.9884 0.639999 69.8417 0.639999C70.6951 0.639999 71.5217 0.746666 72.3217 0.96C73.1351 1.17333 73.8617 1.54667 74.5017 2.08C75.1551 2.61333 75.6684 3.35333 76.0417 4.3C76.4284 5.24667 76.6217 6.45333 76.6217 7.92C76.6217 9.38667 76.4284 10.5933 76.0417 11.54C75.6684 12.4867 75.1551 13.2267 74.5017 13.76C73.8617 14.2933 73.1351 14.6667 72.3217 14.88C71.5217 15.0933 70.6951 15.2 69.8417 15.2ZM69.8417 11.8C70.8284 11.8 71.5751 11.5067 72.0817 10.92C72.5884 10.3333 72.8417 9.33333 72.8417 7.92C72.8417 6.50667 72.5884 5.50667 72.0817 4.92C71.5751 4.33333 70.8284 4.04 69.8417 4.04C68.8684 4.04 68.1284 4.34 67.6217 4.94C67.1151 5.54 66.8617 6.53333 66.8617 7.92C66.8617 9.30667 67.1151 10.3 67.6217 10.9C68.1284 11.5 68.8684 11.8 69.8417 11.8ZM79.018 15V4.12L78.618 2.1L79.018 0.84H82.618V3.24L82.418 6.82H83.618L86.838 0.84H90.818V2.04L86.858 7.66L90.218 11.82L92.198 13.8V15H87.698L84.058 9.7L82.618 9.9V12.6L82.818 13.8L82.618 15H79.018Z" fill="white"/>
</svg>
